<?xml version="1.0" standalone="no"?>
<!DOCTYPE svg PUBLIC "-//W3C//DTD SVG 20010904//EN"
 "http://www.w3.org/TR/2001/REC-SVG-20010904/DTD/svg10.dtd">
<svg version="1.0" xmlns="http://www.w3.org/2000/svg"
 width="225.000000pt" height="225.000000pt" viewBox="0 0 225.000000 225.000000"
 preserveAspectRatio="xMidYMid meet">

<g transform="translate(0.000000,225.000000) scale(0.100000,-0.100000)"
fill="#000000" stroke="none">
<path d="M753 1885 c-121 -37 -230 -151 -323 -335 -12 -25 -38 -62 -56 -82
-64 -72 -79 -112 -79 -218 0 -84 3 -101 27 -145 14 -27 39 -63 56 -80 16 -16
37 -46 47 -65 32 -63 95 -149 157 -216 218 -233 563 -375 950 -391 149 -6 169
-2 246 50 92 62 123 154 97 288 -9 46 -19 151 -22 232 l-6 148 30 32 c61 63
78 112 78 217 0 106 -9 131 -74 210 -21 25 -41 59 -45 75 -21 84 -110 173
-215 214 -82 33 -121 39 -387 61 -283 23 -420 24 -481 5z m431 -35 c356 -28
429 -44 525 -120 46 -36 101 -123 101 -158 0 -8 16 -32 35 -53 59 -66 79 -115
79 -199 0 -84 -23 -146 -74 -196 l-29 -29 0 -140 c0 -77 4 -165 9 -195 22
-134 23 -188 6 -234 -20 -52 -71 -100 -135 -129 -40 -18 -59 -19 -161 -14
-207 12 -417 60 -583 136 -203 91 -409 278 -494 445 -14 27 -40 64 -58 83 -56
57 -79 117 -79 203 0 84 19 132 78 198 18 20 46 62 61 92 70 139 162 247 244
290 90 45 126 47 475 20z"/>
<path d="M843 1805 c-23 -7 -62 -24 -86 -39 -45 -26 -137 -119 -137 -139 0 -6
25 17 55 51 76 84 158 124 264 130 67 4 94 0 182 -26 115 -35 162 -39 295 -27
130 11 193 -13 255 -98 16 -22 29 -33 29 -25 0 27 -69 95 -118 116 -55 24
-108 28 -238 17 -84 -7 -99 -5 -201 24 -121 34 -225 40 -300 16z"/>
<path d="M894 1746 c-57 -18 -129 -70 -159 -114 -14 -20 -25 -41 -25 -47 0 -5
7 2 17 15 82 123 225 178 354 136 28 -10 53 -15 56 -13 2 3 -17 12 -43 21 -56
19 -143 20 -200 2z"/>
<path d="M1433 1733 c15 -2 37 -2 50 0 12 2 0 4 -28 4 -27 0 -38 -2 -22 -4z"/>
<path d="M1366 1721 c-4 -5 3 -7 14 -4 23 6 26 13 6 13 -8 0 -17 -4 -20 -9z"/>
<path d="M1578 1694 c24 -15 57 -47 73 -72 16 -25 29 -41 29 -35 0 32 -103
133 -136 133 -5 0 11 -12 34 -26z"/>
<path d="M1020 1697 c36 -7 80 -21 98 -30 17 -10 32 -15 32 -12 0 14 -86 45
-137 50 l-58 5 65 -13z"/>
<path d="M874 1679 c-22 -11 -56 -36 -75 -57 l-34 -37 35 31 c36 33 86 61 130
75 20 6 21 7 5 8 -11 0 -38 -9 -61 -20z"/>
<path d="M1448 1693 c12 -2 30 -2 40 0 9 3 -1 5 -23 4 -22 0 -30 -2 -17 -4z"/>
<path d="M1593 1648 c16 -13 37 -34 48 -48 12 -14 17 -18 13 -10 -11 24 -47
61 -69 72 -11 5 -8 0 8 -14z"/>
<path d="M1359 1629 l-24 -20 28 17 c15 9 27 18 27 20 0 8 -8 4 -31 -17z"/>
<path d="M1130 1634 c0 -5 7 -18 15 -28 8 -11 15 -16 15 -10 0 5 -7 18 -15 28
-8 11 -15 16 -15 10z"/>
<path d="M853 1566 c-115 -36 -175 -114 -125 -159 27 -25 56 -21 107 15 40 28
54 33 109 33 56 0 69 -4 109 -32 55 -40 90 -42 113 -8 24 37 11 69 -42 106
-83 57 -181 73 -271 45z m235 -63 c48 -29 63 -56 43 -76 -8 -8 -19 -5 -38 10
-41 30 -89 53 -111 53 -15 0 -20 6 -18 26 1 24 4 26 40 21 21 -3 59 -18 84
-34z m-269 -20 c10 -19 7 -24 -20 -44 -28 -20 -32 -20 -46 -6 -15 15 -13 19
17 47 18 17 34 29 35 28 1 -2 7 -13 14 -25z"/>
<path d="M1162 1550 c0 -19 2 -27 5 -17 2 9 2 25 0 35 -3 9 -5 1 -5 -18z"/>
<path d="M1322 1550 c0 -19 2 -27 5 -17 2 9 2 25 0 35 -3 9 -5 1 -5 -18z"/>
<path d="M1400 1529 c-24 -11 -53 -27 -62 -36 -38 -34 -11 -144 53 -216 21
-25 39 -52 39 -60 0 -30 -41 -67 -81 -73 -51 -8 -53 -34 -4 -34 54 0 90 24
109 70 22 54 20 69 -9 91 -49 39 -91 119 -62 119 8 0 26 9 40 20 32 25 84 25
122 0 39 -26 70 -25 89 2 24 34 20 53 -19 86 -61 54 -140 65 -215 31z m180
-47 c32 -24 38 -52 12 -52 -11 0 -25 6 -31 14 -7 8 -25 18 -41 21 -17 4 -30
14 -33 27 -5 19 -2 20 31 14 20 -3 48 -14 62 -24z m-200 -32 c9 -16 8 -20 -5
-20 -8 0 -15 9 -15 20 0 11 2 20 5 20 2 0 9 -9 15 -20z"/>
<path d="M528 1453 c6 -2 18 -2 25 0 6 3 1 5 -13 5 -14 0 -19 -2 -12 -5z"/>
<path d="M1728 1453 c12 -2 30 -2 40 0 9 3 -1 5 -23 4 -22 0 -30 -2 -17 -4z"/>
<path d="M474 1434 c-18 -14 -18 -14 6 -3 31 14 36 19 24 19 -6 0 -19 -7 -30
-16z"/>
<path d="M419 1393 l-24 -28 28 24 c25 23 32 31 24 31 -2 0 -14 -12 -28 -27z"/>
<path d="M535 1386 c-74 -32 -135 -144 -121 -221 10 -53 24 -42 24 18 -1 81
36 143 104 178 49 25 89 24 173 -6 100 -35 146 -32 197 13 27 23 10 35 -19 12
-43 -33 -85 -35 -164 -6 -77 28 -147 33 -194 12z"/>
<path d="M1831 1350 c14 -31 19 -36 19 -24 0 6 -7 19 -16 30 -14 18 -14 18 -3
-6z"/>
<path d="M649 1356 c-4 -4 -4 -27 -2 -51 4 -34 0 -52 -17 -80 -22 -35 -65 -65
-95 -65 -8 0 -15 -4 -15 -10 0 -5 9 -10 19 -10 14 0 21 -9 26 -38 8 -49 29
-80 107 -160 120 -124 273 -203 453 -237 69 -13 126 -16 240 -13 167 5 214 18
311 83 80 52 88 74 92 243 2 79 1 154 -2 166 -13 54 -58 41 -150 -42 -81 -74
-124 -88 -261 -85 -205 4 -319 48 -439 169 -80 80 -122 100 -196 91 -43 -5
-47 -4 -56 20 -5 14 -12 22 -15 19z m139 -90 c7 -34 -9 -124 -22 -129 -7 -3
-36 8 -64 24 l-51 29 19 42 c20 46 39 58 85 55 20 -1 31 -8 33 -21z m141 -97
c44 -42 81 -80 81 -86 0 -5 -6 -17 -13 -27 -12 -16 -18 -15 -101 15 l-89 32 6
62 c5 64 13 89 26 83 5 -2 45 -37 90 -79z m811 -66 c0 -88 -11 -88 -34 2 -12
46 -12 61 -3 67 31 20 37 8 37 -69z m-61 -10 c16 -55 14 -73 -8 -73 -18 0 -31
38 -31 93 0 32 29 18 39 -20z m-977 -40 c66 -43 67 -44 61 -81 -3 -20 -10 -41
-14 -47 -19 -20 -156 141 -145 171 4 9 11 12 18 8 7 -5 43 -27 80 -51z m448
-3 c50 -14 65 -22 65 -36 0 -11 -4 -18 -10 -18 -81 9 -168 30 -172 41 -10 25
6 46 30 38 12 -4 51 -15 87 -25z m465 -11 c0 -31 -3 -34 -32 -37 -29 -3 -33 0
-33 21 0 24 35 59 55 53 6 -1 10 -18 10 -37z m-277 -19 c26 0 33 -4 30 -17 -3
-15 -12 -17 -58 -14 -63 4 -65 4 -56 27 4 11 13 14 29 10 12 -3 37 -6 55 -6z
m180 -7 c-4 -24 -118 -33 -118 -9 0 14 24 20 93 24 22 2 28 -2 25 -15z m-635
-57 c43 -19 80 -36 83 -38 9 -10 -18 -110 -32 -115 -13 -5 -112 47 -138 73
-13 13 -13 59 0 102 4 15 -3 17 87 -22z m232 -79 l80 -23 -3 -50 c-3 -75 -5
-78 -60 -70 -48 6 -142 34 -154 45 -6 5 4 73 17 109 6 17 28 15 120 -11z m590
-37 c-20 -22 -31 -20 -22 5 4 8 14 15 23 15 16 0 16 -2 -1 -20z m-362 -7 c12
-7 8 -78 -6 -97 -10 -13 -24 -17 -62 -14 -49 3 -50 3 -53 39 -2 19 2 48 8 63
10 27 12 28 58 21 26 -4 50 -9 55 -12z m302 -19 c0 -19 -6 -30 -17 -32 -14 -3
-18 3 -18 26 0 16 3 32 7 36 14 13 28 -1 28 -30z m-181 20 c18 -7 21 -49 6
-88 -8 -22 -16 -26 -49 -26 -25 0 -41 5 -44 14 -8 21 4 90 17 98 13 9 49 10
70 2z m114 -32 c4 -42 -14 -64 -47 -60 -22 3 -26 7 -22 33 5 46 20 67 44 63
17 -2 23 -11 25 -36z"/>
<path d="M1893 1305 c0 -22 2 -30 4 -17 2 12 2 30 0 40 -3 9 -5 -1 -4 -23z"/>
<path d="M1555 1315 c16 -13 30 -15 65 -9 87 13 137 10 160 -11 16 -14 22 -16
18 -5 -9 28 -50 41 -108 35 -81 -10 -113 -10 -135 -1 l-20 8 20 -17z"/>
<path d="M352 1260 c0 -14 2 -19 5 -12 2 6 2 18 0 25 -3 6 -5 1 -5 -13z"/>
<path d="M1831 1247 c-13 -21 -12 -21 5 -5 10 10 16 20 13 22 -3 3 -11 -5 -18
-17z"/>
<path d="M1880 1252 c0 -6 -12 -25 -27 -44 -22 -27 -23 -29 -4 -13 27 23 45
54 37 63 -3 3 -6 0 -6 -6z"/>
<path d="M1160 1220 c-11 -11 -20 -31 -20 -43 0 -25 28 -57 48 -57 17 0 15 7
-9 31 -19 19 -19 22 -6 42 9 13 24 21 36 20 13 -2 21 3 21 12 0 22 -46 19 -70
-5z"/>
<path d="M351 1194 c0 -11 3 -14 6 -6 3 7 2 16 -1 19 -3 4 -6 -2 -5 -13z"/>
<path d="M1484 1201 c7 -11 46 -35 46 -28 0 3 -12 12 -26 22 -15 9 -23 12 -20
6z"/>
<path d="M1211 1171 c-20 -13 -5 -29 23 -24 13 3 27 0 30 -6 10 -16 26 -14 26
4 0 27 -51 44 -79 26z"/>
<path d="M648 801 c13 -11 76 -49 141 -85 359 -199 664 -280 843 -222 55 18
128 68 128 88 0 5 -19 -7 -42 -26 -125 -107 -367 -87 -699 58 -92 41 -160 76
-344 180 -36 20 -43 22 -27 7z"/>
<path d="M690 816 c0 -3 9 -10 20 -16 11 -6 20 -8 20 -6 0 3 -9 10 -20 16 -11
6 -20 8 -20 6z"/>
<path d="M760 775 c0 -7 141 -77 146 -73 2 2 -30 21 -71 41 -41 20 -75 35 -75
32z"/>
<path d="M1676 636 c-27 -26 -40 -43 -30 -38 22 12 90 80 83 84 -2 2 -26 -19
-53 -46z"/>
<path d="M970 670 c8 -5 20 -10 25 -10 6 0 3 5 -5 10 -8 5 -19 10 -25 10 -5 0
-3 -5 5 -10z"/>
<path d="M1020 650 c8 -5 20 -10 25 -10 6 0 3 5 -5 10 -8 5 -19 10 -25 10 -5
0 -3 -5 5 -10z"/>
<path d="M1180 651 c0 -4 28 -16 63 -27 76 -23 248 -27 269 -6 11 11 8 12 -17
5 -55 -15 -196 -6 -257 16 -32 11 -58 16 -58 12z"/>
<path d="M1258 573 c7 -3 16 -2 19 1 4 3 -2 6 -13 5 -11 0 -14 -3 -6 -6z"/>
<path d="M1298 563 c6 -2 18 -2 25 0 6 3 1 5 -13 5 -14 0 -19 -2 -12 -5z"/>
<path d="M1548 563 c7 -3 16 -2 19 1 4 3 -2 6 -13 5 -11 0 -14 -3 -6 -6z"/>
<path d="M1378 553 c12 -2 32 -2 45 0 12 2 2 4 -23 4 -25 0 -35 -2 -22 -4z"/>
<path d="M1473 553 c9 -2 25 -2 35 0 9 3 1 5 -18 5 -19 0 -27 -2 -17 -5z"/>
</g>
</svg>
